<svg xmlns="http://www.w3.org/2000/svg">
    <title>symbols defs</title>
    <defs>
        <symbol id="cross" viewBox="0 0 94.926 94.926"
                style="enable-background:new 0 0 94.926 94.926;">
            <title>Cross</title>
            <path d="M55.931,47.463L94.306,9.09c0.826-0.827,0.826-2.167,0-2.994L88.833,0.62C88.436,0.224,87.896,0,87.335,0
		c-0.562,0-1.101,0.224-1.498,0.62L47.463,38.994L9.089,0.62c-0.795-0.795-2.202-0.794-2.995,0L0.622,6.096
		c-0.827,0.827-0.827,2.167,0,2.994l38.374,38.373L0.622,85.836c-0.827,0.827-0.827,2.167,0,2.994l5.473,5.476
		c0.397,0.396,0.936,0.62,1.498,0.62s1.1-0.224,1.497-0.62l38.374-38.374l38.374,38.374c0.397,0.396,0.937,0.62,1.498,0.62
		s1.101-0.224,1.498-0.62l5.473-5.476c0.826-0.827,0.826-2.167,0-2.994L55.931,47.463z"/>
        </symbol>
        <symbol id="trash_bin" viewBox="0 0 16 16">
            <rect width="16" height="16" id="icon-bound" fill="none"/>
            <path d="M11,5h2v8.5c0,0.825-0.675,1.5-1.5,1.5h-7C3.675,15,3,14.325,3,13.5V5h2v8h2V5h2v8h2V5z M2,2h12v2H2V2z M6,0h4v1H6V0z"/>
        </symbol>
        <symbol id="edit_pen" viewBox="796 796 200 200">
            <path d="M989.732,874.138c-3.462,0-6.268,2.806-6.268,6.268v91.41c0,6.423-5.227,11.648-11.648,11.648H820.184
		c-6.423,0-11.648-5.226-11.648-11.648v-151.63c0-6.423,5.226-11.648,11.648-11.648h95.599c3.462,0,6.268-2.806,6.268-6.268
		c0-3.461-2.806-6.268-6.268-6.268h-95.599c-13.335,0-24.184,10.849-24.184,24.184v151.63c0,13.335,10.849,24.184,24.184,24.184
		h151.632c13.334,0,24.184-10.849,24.184-24.184v-91.41C996,876.944,993.193,874.138,989.732,874.138z"/>
            <path d="M829.716,963.686h49.934l107.182-107.182c9.43-9.43,9.43-24.772,0-34.203l-15.731-15.732
		c-4.567-4.567-10.641-7.083-17.101-7.083c-6.461,0-12.533,2.516-17.102,7.083l-107.182,107.18V963.686z M874.654,950.955
		l-32.208-32.207l78.466-78.465l32.207,32.207L874.654,950.955z M945.762,815.434c2.201-2.2,5.127-3.412,8.238-3.412
		s6.037,1.211,8.237,3.412l15.73,15.731c4.544,4.542,4.544,11.933,0.001,16.475l-12.924,12.924c-1.69,1.691-4.433,1.691-6.125,0
		l-26.081-26.082c-1.691-1.691-1.691-4.434,0-6.125L945.762,815.434z"/>
        </symbol>
        <symbol id="ok" viewBox="0 0 24 24" aria-labelledby="okIconTitle" stroke-width="2" stroke-linecap="round" stroke-linejoin="round" fill="none">
            <polyline points="4 13 9 18 20 7"/>
        </symbol>
    </defs>
</svg>